<?xml version="1.0" encoding="UTF-8"?>
<svg id="Layer_2" data-name="Layer 2" xmlns="http://www.w3.org/2000/svg" viewBox="0 0 422.39 375.13">
  <defs>
    <style>
      .cls-1 {
        fill: #958bf7;
      }

      .cls-2 {
        fill: #fff;
      }

      .cls-3 {
        fill: #c8edea;
      }

      .cls-4 {
        fill: #775fe0;
      }

      .cls-5 {
        fill: #4b39c6;
      }

      .cls-6 {
        fill: #beede6;
      }

      .cls-7 {
        letter-spacing: 0em;
      }

      .cls-8 {
        fill: #b4d371;
      }

      .cls-9 {
        fill: #3f3a89;
      }

      .cls-10 {
        letter-spacing: 0em;
      }

      .cls-11 {
        letter-spacing: 0em;
      }

      .cls-12 {
        fill: #ef9014;
      }

      .cls-13 {
        font-family: Bahiana-Regular, 'Bahiana Regular';
        font-size: 53.81px;
      }

      .cls-14 {
        fill: #bcd8d7;
      }

      .cls-15 {
        fill: #9bbc40;
      }

      .cls-16 {
        letter-spacing: 0em;
      }

      .cls-17 {
        fill: #ffb448;
      }
    </style>
  </defs>
  <g id="OBJECTS">
    <g>
      <g>
        <g>
          <path class="cls-8" d="M68.87,336.67c8.54,1.77,17.14,3.37,25.55,5.73,8.12,2.27,16.07,5.29,23.24,9.76,.09,.14,.16,.29,.26,.43,.28,.42,.8,.13,.87-.26,.13-.16,.17-.39,.01-.6-.57-.76-1.05-1.57-1.48-2.4-1-2.55-1.3-5.35-1.05-8.09,.83-9.34,7.25-16.55,12.42-23.88,2.67-3.79,5.1-7.82,6.47-12.27,.65-2.13,1.07-4.35,1.09-6.59,.03-2.02-.16-4.16-1.14-5.97-.8-1.5-2.19-3.02-4.04-2.92-2.14,.11-3.51,2.34-4.76,3.8-1.67,1.99-3.36,3.96-5.03,5.93-1.64,1.94-3.23,3.94-4.95,5.82-.63,.69-1.45,1.46-2.43,1.54-1.09,.09-1.91-.68-2.41-1.56-1.08-1.9-1.16-4.41-1.16-6.55,0-4.65,1.16-9.2,2.42-13.65,2.22-7.83,5.05-16.27,2.89-24.44-.5-1.87-1.22-3.79-2.36-5.37-1.13-1.56-3.02-2.63-4.79-1.37-.8,.56-1.42,1.42-1.99,2.21-.64,.9-1.22,1.86-1.75,2.84-1.1,2.03-1.98,4.16-2.87,6.28-.88,2.12-1.78,4.24-2.94,6.21-1.06,1.8-2.34,3.76-4.28,4.72-.83,.4-1.82,.63-2.7,.2-.96-.47-1.43-1.53-1.72-2.51-.56-1.96-.73-4.07-.72-6.1,.05-8.32,3.36-16.2,3.6-24.5,.05-1.97-.07-3.95-.46-5.89-.37-1.82-.92-4.08-2.62-5.14-3.31-2.08-6.14,2.05-7.38,4.59-1.14,2.31-2.27,4.62-3.41,6.95-.58,1.17-1.16,2.35-1.73,3.52-.49,1.01-.91,2.2-1.65,3.06-1.56,1.81-3.51-.12-4.36-1.58-1.11-1.88-1.52-4.21-2.03-6.3-2.14-8.77-3.38-18.08-8.78-25.6-2.36-3.29-5.46-6.16-9.23-7.76-3.26-1.39-7.74-2.11-10.71,.33-3.39,2.78-2.64,8.08-1.81,11.86,.83,3.84,2.35,7.49,4.03,11.01,1.74,3.65,3.67,7.2,5.36,10.88,.82,1.8,1.59,3.62,2.23,5.49,.62,1.81,1.37,3.82,1.13,5.75-.11,.87-.48,1.78-1.37,2.11-1.01,.38-2.14-.14-3.08-.53-2.17-.92-4.32-1.9-6.51-2.77-4.13-1.63-8.68-2.98-13.16-2.18-.93,.17-1.86,.49-2.49,1.22-.61,.68-.78,1.61-.67,2.51,.27,2,1.71,3.64,3.03,5.07,2.8,3.07,6.07,5.65,9.35,8.19,3.31,2.56,6.67,5.07,9.62,8.04,1.43,1.44,2.75,2.98,3.89,4.64,.38,.55,1.81,2.38,.79,2.88-.44,.21-1.13,.03-1.6-.02-.46-.04-.91-.09-1.37-.14-3.85-.41-7.75-.87-11.63-.51-1.85,.17-3.7,.55-5.43,1.24-1.73,.7-3.71,1.75-4.8,3.3-2.24,3.17,.83,6.65,3.48,8.3,1.71,1.07,3.63,1.87,5.5,2.62,2,.79,4.03,1.48,6.07,2.14,7.56,2.47,15.93,4.74,21.22,11.08-.68,.24-1.37,.43-2.07,.54-3.81,.62-7.64-.24-11.44-.46-3.48-.19-7.25,.15-10.03,2.47-2.39,1.99-3.88,5.24-2.65,8.28,.68,1.64,2,2.94,3.35,4.03,1.58,1.27,3.31,2.35,5.1,3.28,3.68,1.91,7.66,3.16,11.66,4.19,4.09,1.07,8.24,1.97,12.4,2.84Z"/>
          <path class="cls-1" d="M37.88,259.97c7.08,3.76,14.15,7.52,21.22,11.29,3.5,1.86,6.99,3.73,10.49,5.6,1.48,.79,3.01,1.55,4.47,2.41-3.5-7.14-6.84-14.36-10.02-21.65-3.95-9.06-7.65-18.23-11.11-27.49-.47-1.26,1.44-2.09,1.92-.83,6.07,16.26,12.9,32.23,20.48,47.84,.57,1.17,1.17,2.33,1.75,3.5,3.19-12.04,6.18-24.13,8.97-36.27,.3-1.3,2.38-1.08,2.08,.22-2.98,13.01-6.2,25.96-9.64,38.85,4.32,8.61,8.89,17.11,13.65,25.48,5.5-11.22,10.89-22.49,16.14-33.83,.56-1.21,2.51-.46,1.94,.77-5.45,11.77-11.04,23.48-16.77,35.13-.02,.04-.05,.07-.08,.11,2.29,3.98,4.62,7.95,7.02,11.87,2.68,4.38,5.42,8.72,8.22,13.02,.27-.08,.52-.24,.74-.52,2.68-3.61,5.07-7.48,7.59-11.21,2.87-4.26,5.74-8.51,8.61-12.77,.75-1.11,2.42,.14,1.67,1.26-5.34,7.94-10.54,16.03-16.09,23.83-.43,.6-.86,.99-1.32,1.24,2.17,3.3,4.36,6.59,6.6,9.84,.76,1.1-.88,2.4-1.64,1.29-2.47-3.6-4.89-7.23-7.28-10.88-.27-.04-.54-.09-.84-.16-2.32-.52-4.65-1.02-6.99-1.5-4.67-.96-9.35-1.82-14.05-2.6-5.37-.89-10.76-1.66-16.17-2.32-1.33-.16-1.11-2.24,.22-2.08,8.95,1.1,17.87,2.5,26.72,4.22,2.17,.42,4.34,.86,6.5,1.33,1.01,.22,2.02,.44,3.03,.66-5.2-8.05-10.21-16.23-14.98-24.54-14.86-6.74-30.16-12.45-45.81-17.07-1.29-.38-.51-2.32,.77-1.94,14.77,4.36,29.23,9.7,43.3,15.95-.66-1.17-1.33-2.34-1.98-3.52-3.9-7.02-7.64-14.12-11.22-21.31-2.36-2.16-5.52-3.49-8.3-4.98-3.42-1.83-6.84-3.65-10.26-5.48-6.77-3.61-13.54-7.21-20.31-10.8-1.17-.62-.42-2.57,.77-1.94Z"/>
        </g>
        <g>
          <path class="cls-1" d="M64.1,363.1c4.77,5.42,13.81,2.41,19.65,.68,6.84-2.02,13.67-4.59,20.92-4.3,.94,.04,1.11-1.22,.57-1.75-.08-.08-.15-.15-.22-.23,.01-.45-.21-.91-.76-1.05-.12-.04-.21-.08-.33-.11-1.1-1.27-2.05-2.63-2.86-4.1-.21-1.84,.1-3.89,.36-5.4,1.13-6.53,2.8-13.08,2.49-19.76-.26-5.73-2.77-15.5-10.05-15.41-1.52,.01-3.09,.59-4.12,1.73-1.28,1.42-1.48,3.39-1.88,5.18-.48,2.13-1.17,4.24-2.08,6.23-.36,.78-.84,1.86-1.74,2.14s-1.68-.48-2.19-1.15c-2.12-2.83-2.33-6.74-3.03-10.09-.78-3.67-2.36-7.07-4.84-9.89-1.91-2.16-4.94-5.15-8.14-4.69-3.89,.55-3.39,5.45-3.27,8.3,.09,2.39,.21,9.35-3.97,7.32-2.77-1.34-4.1-4.81-5.11-7.51-2.17-5.86-3.04-12.62-7.31-17.45-1.67-1.9-4.61-4.4-7.29-2.91-1.56,.87-2.08,2.66-2.33,4.31-.29,2.01-.42,4.05-.76,6.06-.21,1.28-.6,3.23-1.86,3.92-1.8,.99-3.74-1.8-4.58-3.05-2.16-3.26-3.55-6.85-6.15-9.84-4.34-5.01-12.52-11.09-19.38-7.36-2.75,1.49-4.26,4.45-3.75,7.55,.5,3.08,2.44,5.72,4.65,7.82,3.06,2.92,6.71,5.11,10.33,7.25,3.59,2.12,7.65,4.17,10.59,7.17,.72,.73,1.29,1.62,.77,2.63-.43,.82-1.36,1.36-2.12,1.82-1.64,1-3.44,1.68-5.04,2.74-2.32,1.51-4.33,4.29-3.74,7.21,.7,3.47,4.78,4.27,7.77,4.51,3.2,.26,6.39-.14,9.56-.59,3.28-.47,6.63-1.02,9.96-.8,.83,.05,1.65,.16,2.46,.31,.79,.15,2.04,.3,1.36,1.27-1.11,1.59-3.32,2.64-4.84,3.81-2.44,1.88-4.55,4.47-4.4,7.73,.15,3.42,3.19,4.96,6.27,5.06,3.94,.13,7.95-.54,11.88-.86,1.95-.15,3.91-.27,5.86-.27,1.87,0,3.97-.07,5.77,.49,.65,.2,1.56,.55,1.9,1.19,.49,.92-.49,1.68-1.15,2.16-1.41,1.01-2.82,2-3.89,3.39-2.03,2.63-2.19,6.02,.06,8.59Z"/>
          <path class="cls-8" d="M72.49,355.42c4.01-.4,8.02-.8,12.03-1.2,2.05-.2,4.09-.41,6.14-.61,.58-.06,1.47-.01,2.2-.11-2.83-1.85-5.6-3.82-8.38-5.73-4.18-2.88-8.37-5.75-12.55-8.63-.11,.06-.24,.1-.38,.1-6.92,.02-13.81,.66-20.61,1.9-1.27,.23-1.42-1.76-.16-1.99,6.1-1.12,12.28-1.72,18.48-1.85-.35-.24-.7-.48-1.04-.72-7.94-5.46-15.88-10.92-23.81-16.37-6.04,.69-12.03,1.77-17.92,3.27-1.24,.32-1.91-1.57-.66-1.89,5.31-1.35,10.69-2.37,16.11-3.09-2.02-1.39-4.03-2.77-6.05-4.16-6.04-4.15-12.09-8.31-18.13-12.46-1.06-.73,.24-2.25,1.29-1.52,8.3,5.71,16.6,11.41,24.9,17.12-1.24-6.03-2.16-12.12-2.7-18.26-.11-1.28,1.88-1.45,1.99-.16,.58,6.62,1.56,13.21,2.98,19.7,.02,.1,.03,.21,.03,.31,8.04,5.53,16.08,11.05,24.12,16.58-.3-7.35-.6-14.71-.9-22.06-.05-1.28,1.94-1.45,1.99-.16l.96,23.64c3.49,2.4,6.98,4.8,10.47,7.2,3.74,2.57,7.44,5.29,11.29,7.76-.01-.4-.09-.82-.13-1.2-.73-7.32-.84-14.68-.4-22.02,.08-1.29,2.05-.92,1.97,.35-.25,4.14-.31,8.3-.18,12.45,.07,2.04,.18,4.08,.34,6.12,.08,.98,.16,1.96,.26,2.94,.08,.82,.31,1.8,.21,2.65,1.56,.94,3.14,1.83,4.77,2.63,1.15,.57,.31,2.39-.84,1.81-1.73-.86-3.41-1.82-5.06-2.83-.69,.33-1.57,.4-2.34,.48-2.29,.23-4.58,.46-6.88,.68-4.42,.44-8.84,.88-13.26,1.32-1.28,.13-1.44-1.87-.16-1.99Z"/>
        </g>
      </g>
      <g>
        <g>
          <path class="cls-8" d="M346.22,334.58c-8.54,1.77-17.14,3.37-25.55,5.73-8.12,2.27-16.07,5.29-23.24,9.76-.09,.14-.16,.29-.26,.43-.28,.42-.8,.13-.87-.26-.13-.16-.17-.39-.01-.6,.57-.76,1.05-1.57,1.48-2.4,1-2.55,1.3-5.35,1.05-8.09-.83-9.34-7.25-16.55-12.42-23.88-2.67-3.79-5.1-7.82-6.47-12.27-.65-2.13-1.07-4.35-1.09-6.59-.03-2.02,.16-4.16,1.14-5.97,.8-1.5,2.19-3.02,4.04-2.92,2.14,.11,3.51,2.34,4.76,3.8,1.67,1.99,3.36,3.96,5.03,5.93,1.64,1.94,3.23,3.94,4.95,5.82,.63,.69,1.45,1.46,2.43,1.54,1.09,.09,1.91-.68,2.41-1.56,1.08-1.9,1.16-4.41,1.16-6.55,0-4.65-1.16-9.2-2.42-13.65-2.22-7.83-5.05-16.27-2.89-24.44,.5-1.87,1.22-3.79,2.36-5.37,1.13-1.56,3.02-2.63,4.79-1.37,.8,.56,1.42,1.42,1.99,2.21,.64,.9,1.22,1.86,1.75,2.84,1.1,2.03,1.98,4.16,2.87,6.28,.88,2.12,1.78,4.24,2.94,6.21,1.06,1.8,2.34,3.76,4.28,4.72,.83,.4,1.82,.63,2.7,.2,.96-.47,1.43-1.53,1.72-2.51,.56-1.96,.73-4.07,.72-6.1-.05-8.32-3.36-16.2-3.6-24.5-.05-1.97,.07-3.95,.46-5.89,.37-1.82,.92-4.08,2.62-5.14,3.31-2.08,6.14,2.05,7.38,4.59,1.14,2.31,2.27,4.62,3.41,6.95,.58,1.17,1.16,2.35,1.73,3.52,.49,1.01,.91,2.2,1.65,3.06,1.56,1.81,3.51-.12,4.36-1.58,1.11-1.88,1.52-4.21,2.03-6.3,2.14-8.77,3.38-18.08,8.78-25.6,2.36-3.29,5.46-6.16,9.23-7.76,3.26-1.39,7.74-2.11,10.71,.33,3.39,2.78,2.64,8.08,1.81,11.86-.83,3.84-2.35,7.49-4.03,11.01-1.74,3.65-3.67,7.2-5.36,10.88-.82,1.8-1.59,3.62-2.23,5.49-.62,1.81-1.37,3.82-1.13,5.75,.11,.87,.48,1.78,1.37,2.11,1.01,.38,2.14-.14,3.08-.53,2.17-.92,4.32-1.9,6.51-2.77,4.13-1.63,8.68-2.98,13.16-2.18,.93,.17,1.86,.49,2.49,1.22,.61,.68,.78,1.61,.67,2.51-.27,2-1.71,3.64-3.03,5.07-2.8,3.07-6.07,5.65-9.35,8.19-3.31,2.56-6.67,5.07-9.62,8.04-1.43,1.44-2.75,2.98-3.89,4.64-.38,.55-1.81,2.38-.79,2.88,.44,.21,1.13,.03,1.6-.02,.46-.04,.91-.09,1.37-.14,3.85-.41,7.75-.87,11.63-.51,1.85,.17,3.7,.55,5.43,1.24,1.73,.7,3.71,1.75,4.8,3.3,2.24,3.17-.83,6.65-3.48,8.3-1.71,1.07-3.63,1.87-5.5,2.62-2,.79-4.03,1.48-6.07,2.14-7.56,2.47-15.93,4.74-21.22,11.08,.68,.24,1.37,.43,2.07,.54,3.81,.62,7.64-.24,11.44-.46,3.48-.19,7.25,.15,10.03,2.47,2.39,1.99,3.88,5.24,2.65,8.28-.68,1.64-2,2.94-3.35,4.03-1.58,1.27-3.31,2.35-5.1,3.28-3.68,1.91-7.66,3.16-11.66,4.19-4.09,1.07-8.24,1.97-12.4,2.84Z"/>
          <path class="cls-1" d="M377.21,257.89c-7.08,3.76-14.15,7.52-21.22,11.29-3.5,1.86-6.99,3.73-10.49,5.6-1.48,.79-3.01,1.55-4.47,2.41,3.5-7.14,6.84-14.36,10.02-21.65,3.95-9.06,7.65-18.23,11.11-27.49,.47-1.26-1.44-2.09-1.92-.83-6.07,16.26-12.9,32.23-20.48,47.84-.57,1.17-1.17,2.33-1.75,3.5-3.19-12.04-6.18-24.13-8.97-36.27-.3-1.3-2.38-1.08-2.08,.22,2.98,13.01,6.2,25.96,9.64,38.85-4.32,8.61-8.89,17.11-13.65,25.48-5.5-11.22-10.89-22.49-16.14-33.83-.56-1.21-2.51-.46-1.94,.77,5.45,11.77,11.04,23.48,16.77,35.13,.02,.04,.05,.07,.08,.11-2.29,3.98-4.62,7.95-7.02,11.87-2.68,4.38-5.42,8.72-8.22,13.02-.27-.08-.52-.24-.74-.52-2.68-3.61-5.07-7.48-7.59-11.21-2.87-4.26-5.74-8.51-8.61-12.77-.75-1.11-2.42,.14-1.67,1.26,5.34,7.94,10.54,16.03,16.09,23.83,.43,.6,.86,.99,1.32,1.24-2.17,3.3-4.36,6.59-6.6,9.84-.76,1.1,.88,2.4,1.64,1.29,2.47-3.6,4.89-7.23,7.28-10.88,.27-.04,.54-.09,.84-.16,2.32-.52,4.65-1.02,6.99-1.5,4.67-.96,9.35-1.82,14.05-2.6,5.37-.89,10.76-1.66,16.17-2.32,1.33-.16,1.11-2.24-.22-2.08-8.95,1.1-17.87,2.5-26.72,4.22-2.17,.42-4.34,.86-6.5,1.33-1.01,.22-2.02,.44-3.03,.66,5.2-8.05,10.21-16.23,14.98-24.54,14.86-6.74,30.16-12.45,45.81-17.07,1.29-.38,.51-2.32-.77-1.94-14.77,4.36-29.23,9.7-43.3,15.95,.66-1.17,1.33-2.34,1.98-3.52,3.9-7.02,7.64-14.12,11.22-21.31,2.36-2.16,5.52-3.49,8.3-4.98,3.42-1.83,6.84-3.65,10.26-5.48,6.77-3.61,13.54-7.21,20.31-10.8,1.17-.62,.42-2.57-.77-1.94Z"/>
        </g>
        <g>
          <path class="cls-1" d="M350.99,361.01c-4.77,5.42-13.81,2.41-19.65,.68-6.84-2.02-13.67-4.59-20.92-4.3-.94,.04-1.11-1.22-.57-1.75,.08-.08,.15-.15,.22-.23-.01-.45,.21-.91,.76-1.05,.12-.04,.21-.08,.33-.11,1.1-1.27,2.05-2.63,2.86-4.1,.21-1.84-.1-3.89-.36-5.4-1.13-6.53-2.8-13.08-2.49-19.76,.26-5.73,2.77-15.5,10.05-15.41,1.52,.01,3.09,.59,4.12,1.73,1.28,1.42,1.48,3.39,1.88,5.18,.48,2.13,1.17,4.24,2.08,6.23,.36,.78,.84,1.86,1.74,2.14s1.68-.48,2.19-1.15c2.12-2.83,2.33-6.74,3.03-10.09,.78-3.67,2.36-7.07,4.84-9.89,1.91-2.16,4.94-5.15,8.14-4.69,3.89,.55,3.39,5.45,3.27,8.3-.09,2.39-.21,9.35,3.97,7.32,2.77-1.34,4.1-4.81,5.11-7.51,2.17-5.86,3.04-12.62,7.31-17.45,1.67-1.9,4.61-4.4,7.29-2.91,1.56,.87,2.08,2.66,2.33,4.31,.29,2.01,.42,4.05,.76,6.06,.21,1.28,.6,3.23,1.86,3.92,1.8,.99,3.74-1.8,4.58-3.05,2.16-3.26,3.55-6.85,6.15-9.84,4.34-5.01,12.52-11.09,19.38-7.36,2.75,1.49,4.26,4.45,3.75,7.55-.5,3.08-2.44,5.72-4.65,7.82-3.06,2.92-6.71,5.11-10.33,7.25-3.59,2.12-7.65,4.17-10.59,7.17-.72,.73-1.29,1.62-.77,2.63,.43,.82,1.36,1.36,2.12,1.82,1.64,1,3.44,1.68,5.04,2.74,2.32,1.51,4.33,4.29,3.74,7.21-.7,3.47-4.78,4.27-7.77,4.51-3.2,.26-6.39-.14-9.56-.59-3.28-.47-6.63-1.02-9.96-.8-.83,.05-1.65,.16-2.46,.31-.79,.15-2.04,.3-1.36,1.27,1.11,1.59,3.32,2.64,4.84,3.81,2.44,1.88,4.55,4.47,4.4,7.73-.15,3.42-3.19,4.96-6.27,5.06-3.94,.13-7.95-.54-11.88-.86-1.95-.15-3.91-.27-5.86-.27-1.87,0-3.97-.07-5.77,.49-.65,.2-1.56,.55-1.9,1.19-.49,.92,.49,1.68,1.15,2.16,1.41,1.01,2.82,2,3.89,3.39,2.03,2.63,2.19,6.02-.06,8.59Z"/>
          <path class="cls-8" d="M342.6,353.33c-4.01-.4-8.02-.8-12.03-1.2-2.05-.2-4.09-.41-6.14-.61-.58-.06-1.47-.01-2.2-.11,2.83-1.85,5.6-3.82,8.38-5.73,4.18-2.88,8.37-5.75,12.55-8.63,.11,.06,.24,.1,.38,.1,6.92,.02,13.81,.66,20.61,1.9,1.27,.23,1.42-1.76,.16-1.99-6.1-1.12-12.28-1.72-18.48-1.85,.35-.24,.7-.48,1.04-.72,7.94-5.46,15.88-10.92,23.81-16.37,6.04,.69,12.03,1.77,17.92,3.27,1.24,.32,1.91-1.57,.66-1.89-5.31-1.35-10.69-2.37-16.11-3.09,2.02-1.39,4.03-2.77,6.05-4.16,6.04-4.15,12.09-8.31,18.13-12.46,1.06-.73-.24-2.25-1.29-1.52-8.3,5.71-16.6,11.41-24.9,17.12,1.24-6.03,2.16-12.12,2.7-18.26,.11-1.28-1.88-1.45-1.99-.16-.58,6.62-1.56,13.21-2.98,19.7-.02,.1-.03,.21-.03,.31-8.04,5.53-16.08,11.05-24.12,16.58,.3-7.35,.6-14.71,.9-22.06,.05-1.28-1.94-1.45-1.99-.16l-.96,23.64c-3.49,2.4-6.98,4.8-10.47,7.2-3.74,2.57-7.44,5.29-11.29,7.76,.01-.4,.09-.82,.13-1.2,.73-7.32,.84-14.68,.4-22.02-.08-1.29-2.05-.92-1.97,.35,.25,4.14,.31,8.3,.18,12.45-.07,2.04-.18,4.08-.34,6.12-.08,.98-.16,1.96-.26,2.94-.08,.82-.31,1.8-.21,2.65-1.56,.94-3.14,1.83-4.77,2.63-1.15,.57-.31,2.39,.84,1.81,1.73-.86,3.41-1.82,5.06-2.83,.69,.33,1.57,.4,2.34,.48,2.29,.23,4.58,.46,6.88,.68,4.42,.44,8.84,.88,13.26,1.32,1.28,.13,1.44-1.87,.16-1.99Z"/>
        </g>
      </g>
    </g>
    <g>
      <g>
        <rect class="cls-5" x="110.78" y="12.31" width="194.93" height="68.48"/>
        <polygon class="cls-1" points="100.39 115.5 120.99 370.42 302.75 370.67 323.35 115.81 100.39 115.5"/>
        <polygon class="cls-5" points="120.99 370.42 115.33 370.41 94.73 115.49 100.39 115.5 120.99 370.42"/>
        <polygon class="cls-5" points="323.35 115.81 302.75 370.67 308.02 370.68 328.64 115.82 323.35 115.81"/>
        <rect class="cls-14" x="99.27" y="345.69" width="229.79" height="29.28" transform="translate(.5 -.3) rotate(.08)"/>
        <rect class="cls-3" x="99.29" y="345.69" width="229.79" height="12.35" transform="translate(.49 -.3) rotate(.08)"/>
        <g>
          <path class="cls-8" d="M344.56,129.6v2.3c-.01,7.81-6.4,14.18-14.21,14.17h-1.32c-6.54-.01-12.07-4.48-13.69-10.53l-2.69-23.67,26.46,.04,.06-.02,5.38,17.72Z"/>
          <polygon class="cls-15" points="339.12 111.66 339.18 111.88 339.11 111.9 312.65 111.87 299.49 80.78 319.17 80.81 339.12 111.66"/>
          <path class="cls-2" d="M312.65,111.87l2.69,23.67c-1.4,6.36-7.11,11.16-13.88,11.15h-1.32c-7.14-.01-13.08-5.36-14.02-12.24l-.16-22.62,26.7,.04Z"/>
          <polygon class="cls-6" points="299.49 80.78 312.65 111.87 285.95 111.83 276.24 80.75 299.49 80.78"/>
          <path class="cls-8" d="M285.95,111.83l.16,22.62c-1.04,6.81-6.97,12.07-14.05,12.06h-1.33c-6.68-.01-12.31-4.71-13.78-10.96l-1.52-23.77,30.53,.04Z"/>
          <polygon class="cls-15" points="276.24 80.75 285.95 111.83 255.43 111.79 248.59 80.71 276.24 80.75"/>
          <path class="cls-2" d="M255.43,111.79l1.52,23.77c-1.47,6.28-7.14,10.99-13.85,10.99h-1.33c-7.14-.01-13.09-5.37-14.02-12.27l-1.26-22.52,28.94,.04Z"/>
          <polygon class="cls-6" points="248.59 80.71 255.43 111.79 226.49 111.75 221.82 80.67 248.59 80.71"/>
          <path class="cls-8" d="M226.49,111.75l1.26,22.52c-1.01,6.83-6.94,12.11-14.04,12.1h-1.33c-7-.01-12.87-5.17-13.97-11.88l.03-22.77,28.05,.04Z"/>
          <polygon class="cls-15" points="221.82 80.67 226.49 111.75 198.43 111.71 198.48 80.64 221.82 80.67"/>
          <path class="cls-2" d="M198.43,111.71l-.03,22.77c-1.35,6.43-7.09,11.3-13.91,11.29h-1.33c-7.14-.01-13.08-5.35-14.02-12.23-.02,.14-.04,.28-.07,.41l-1.07-22.29,30.44,.04Z"/>
          <polygon class="cls-6" points="198.48 80.64 198.43 111.71 167.99 111.67 170.34 80.6 198.48 80.64"/>
          <polygon class="cls-15" points="170.34 80.6 167.99 111.67 142.18 111.63 147.11 80.57 170.34 80.6"/>
          <path class="cls-8" d="M167.99,111.67l1.07,22.29c-1.19,6.6-7.02,11.65-13.97,11.64h-1.32c-6.69-.01-12.32-4.71-13.79-10.95l2.21-23.01,25.81,.04Z"/>
          <polygon class="cls-6" points="147.11 80.57 142.18 111.63 116.47 111.59 127.55 80.54 147.11 80.57"/>
          <path class="cls-2" d="M142.18,111.63l-2.21,23.01c-1.47,6.28-7.14,10.99-13.85,10.99h-1.33c-7.13-.01-13.07-5.35-14.01-12.24l5.69-21.79,25.71,.04Z"/>
          <polygon class="cls-15" points="127.55 80.54 116.47 111.59 86.09 111.55 105.35 80.51 127.55 80.54"/>
          <path class="cls-8" d="M116.47,111.59l-5.69,21.79c-1.04,6.81-6.97,12.07-14.05,12.06h-1.33c-7.8-.01-14.18-6.41-14.17-14.21v-2.31s4.86-17.38,4.86-17.38l30.38,.04Z"/>
        </g>
        <rect class="cls-8" x="118.91" y="22.86" width="181.84" height="52.36" transform="translate(.07 -.29) rotate(.08)"/>
        <polygon points="118.88 75.09 299.49 80.78 300.72 75.34 118.88 75.09"/>
        <rect class="cls-2" x="122.74" y="26.68" width="173.26" height="45.01" transform="translate(.07 -.29) rotate(.08)"/>
        <polygon class="cls-9" points="121.3 155.05 133.03 345.53 290.98 345.53 300.65 153.9 121.3 155.05"/>
      </g>
      <g>
        <g>
          <path class="cls-4" d="M150.74,294.74c2.9-2.68,7.15-7.53,12.04-16.02,9.14-15.86,7.65-58.97,7.65-58.97l7.02-1.22,4.92,39.28,43.11,2.8,12.39-34.96,8.51,3.23s-15.12,61.22,6.35,84.36l.18,32.29h-110.67l4.48-47.78s1.5-.68,4.01-3.01Z"/>
          <path class="cls-15" d="M120.6,220.73l-5.04,28.87s-1.86,4.94-5.97,3.17-2.62-6.91-2.62-6.91c0,0-3.35,1.96-3.35,0,0-.39,.47-1.74,1.24-3.65,2.99-7.51,10.41-23.7,10.69-24.33v-.02s5.05,2.86,5.05,2.86Z"/>
          <path class="cls-15" d="M221.86,212.87l5.59,6.78-.75,1.75-10.45,24.47c-3.73-6.58-9.61-8.21-9.61-8.21l15.96-16.51-.75-8.28Z"/>
          <path class="cls-15" d="M189.84,216.29l16.8,21.37c-7.65,2.43-13.62,9.98-13.62,9.98l-7.09-30.58-.37-1.61,6.62-5.31-2.33,6.15Z"/>
          <path class="cls-15" d="M288.75,316.6c5.05-.09,2.25,4.85,2.25,4.85l-5.23,2.43-22.03,10.23-1.67,.78-2.43-7.46,26.13-13.25c7.83-2.05,2.98,2.43,2.98,2.43Z"/>
          <path class="cls-8" d="M237.88,225.65l-12.39,34.96-43.11-2.8-4.92-39.28,8.47-1.47,7.09,30.58s5.97-7.55,13.62-9.98c0,0,5.88,1.63,9.61,8.21l10.45-24.47,11.18,4.25Z"/>
          <path class="cls-8" d="M262.96,243.44l22.81,70.73-26.13,13.25-.75-1.52-2.66-40.65-3.49,27.98c-21.47-23.14-6.35-84.36-6.35-84.36,0,0,21.56,3.46,15.5,8.78,0,0,6.72,3.54,1.08,5.78Z"/>
          <path class="cls-8" d="M170.44,219.74s1.49,43.11-7.65,58.97c-4.89,8.49-9.14,13.34-12.04,16.02v-28.9l-35.17-16.23,5.04-28.87,28.93,3.68c-2.34-5.88,6.54-1.3,6.54-1.3-5.33-8.85,14.37-3.36,14.37-3.36Z"/>
          <polygon points="258.89 325.9 252.74 313.23 256.23 285.25 258.89 325.9"/>
          <path d="M100.03,238.57l15.53-20.67c-.28,.62-7.7,16.82-10.69,24.33,0,0-2.09-1.52-4.83-3.66Z"/>
          <polygon class="cls-17" points="291.4 337.13 290.98 345.53 268.6 345.53 263.74 334.11 285.77 323.88 291.4 337.13"/>
          <path class="cls-17" d="M143.2,159.02c.29-.09,12.13-3.92,13.99-1.89,1.86,2.05-30.79,15.58-30.79,15.58l-10.83,45.16v.02s-15.54,20.67-15.54,20.67c-5.28-4.09-12.95-10.45-12.83-12.67,.19-3.35,24.91-61.02,24.91-61.02,0,0,6.3-17.5,15.49-20.06,0,0,5.83-12.04,8.77-12.7,2.85-.62-2.61,10.8-2.96,11.53,.53-.82,9.12-14.17,11.92-13.68,2.63,.46-5.02,13.09-6.4,15.34,1.47-2.21,9.69-14.35,12.18-13.37,2.68,1.04-8.4,16.64-9.01,17.5,.66-.75,10.56-11.97,13.49-11.25,2.99,.74-11.97,20.28-12.4,20.83Z"/>
          <path class="cls-2" d="M178.25,258.62c-.13-.34-.43-.7-.77-.84-.81-.34-1.59-.01-2.01,.72-1.03,1.77-2.05,3.55-3.08,5.32-.19,.32-.18,.84-.05,1.17,.13,.34,.43,.7,.77,.84,.81,.34,1.59,.01,2.01-.72,1.03-1.77,2.05-3.55,3.08-5.32,.19-.32,.18-.84,.05-1.17Z"/>
          <path class="cls-2" d="M191.16,268.22c-.06-.42-.24-.73-.53-1.03-1.49-1.49-2.99-2.99-4.48-4.48-.26-.26-.75-.38-1.1-.35-.37,.03-.8,.23-1.03,.53-.24,.31-.4,.7-.35,1.1,.06,.42,.24,.73,.53,1.03,1.49,1.49,2.99,2.99,4.48,4.48,.26,.26,.75,.38,1.1,.35,.37-.03,.8-.23,1.03-.53,.24-.31,.4-.7,.35-1.1Z"/>
          <path class="cls-2" d="M182.21,271.12c-.21-.3-.59-.56-.96-.61-.39-.05-.82,0-1.15,.25-.33,.26-.49,.56-.61,.96-.65,2.05-1.31,4.11-1.96,6.16-.11,.35,.05,.86,.25,1.15,.21,.3,.59,.56,.96,.61,.39,.05,.82,0,1.15-.25,.33-.26,.49-.56,.61-.96,.65-2.05,1.31-4.11,1.96-6.16,.11-.35-.05-.86-.25-1.15Z"/>
          <path class="cls-2" d="M172.65,280.54c-.07-.79-.82-1.48-1.64-1.37-.81,.11-1.45,.79-1.37,1.64,.18,1.87,.35,3.73,.53,5.6,.07,.79,.82,1.48,1.64,1.37,.81-.11,1.45-.79,1.37-1.64-.18-1.87-.35-3.73-.53-5.6Z"/>
          <path class="cls-2" d="M190.04,288.4c-.1-.78-.8-1.49-1.64-1.37-2.05,.28-4.11,.57-6.16,.85-.78,.11-1.48,.8-1.37,1.64,.1,.78,.8,1.49,1.64,1.37,2.05-.28,4.11-.57,6.16-.85,.78-.11,1.48-.8,1.37-1.64Z"/>
          <path class="cls-2" d="M197.59,273.16c-.78-.33-1.62-.03-2.01,.72-.84,1.59-1.68,3.17-2.52,4.76-.37,.7,0,1.7,.72,2.01,.78,.33,1.62,.03,2.01-.72,.84-1.59,1.68-3.17,2.52-4.76,.37-.7,0-1.7-.72-2.01Z"/>
          <path class="cls-2" d="M206.28,265.42c-.08-.79-.82-1.48-1.64-1.37-.8,.11-1.46,.79-1.37,1.64,.19,1.87,.37,3.73,.56,5.6,.08,.79,.82,1.48,1.64,1.37,.8-.11,1.46-.79,1.37-1.64-.19-1.87-.37-3.73-.56-5.6Z"/>
          <path class="cls-2" d="M221.83,265.84c-1.87-.2-3.73-.4-5.59-.6-.78-.08-1.64,.36-1.76,1.21-.1,.76,.37,1.67,1.21,1.76,1.86,.2,3.73,.4,5.59,.6,.78,.08,1.64-.36,1.76-1.21,.1-.76-.37-1.67-1.21-1.76Z"/>
          <path class="cls-2" d="M235.62,267.11c-.04-.79-.85-1.48-1.64-1.37-.83,.11-1.42,.79-1.37,1.64,.09,1.68,.18,3.36,.27,5.04,.04,.79,.85,1.48,1.64,1.37,.83-.11,1.42-.79,1.37-1.64-.09-1.68-.18-3.36-.27-5.04Z"/>
          <path class="cls-2" d="M223.28,275.83c-.76-.1-1.67,.37-1.76,1.21-.19,1.77-.38,3.54-.58,5.32-.08,.78,.36,1.64,1.21,1.76,.76,.1,1.67-.37,1.76-1.21,.19-1.77,.38-3.54,.58-5.32,.08-.78-.36-1.64-1.21-1.76Z"/>
          <path class="cls-2" d="M211.64,281.48c-.21-.3-.59-.56-.96-.61-.39-.05-.82,0-1.15,.25-.29,.22-.59,.58-.61,.96l-.28,5.6c-.02,.42,0,.78,.25,1.15,.21,.3,.59,.56,.96,.61,.39,.05,.82,0,1.15-.25,.29-.22,.59-.58,.61-.96,.09-1.87,.19-3.73,.28-5.6,.02-.42,0-.78-.25-1.15Z"/>
          <path class="cls-2" d="M225.31,292c-.1-.75-.8-1.52-1.64-1.37-2.05,.37-4.11,.74-6.16,1.12-.4,.07-.75,.21-1.03,.53-.24,.28-.4,.73-.35,1.1,.1,.75,.8,1.52,1.64,1.37,2.05-.37,4.11-.74,6.16-1.12,.4-.07,.75-.21,1.03-.53,.24-.28,.4-.73,.35-1.1Z"/>
          <path class="cls-2" d="M236.42,291.62c-.56-1.96-1.12-3.92-1.68-5.88-.22-.76-1.23-1.19-1.94-.89-.8,.34-1.12,1.13-.89,1.94,.56,1.96,1.12,3.92,1.68,5.88,.22,.76,1.23,1.19,1.94,.89,.8-.34,1.12-1.13,.89-1.94Z"/>
          <path class="cls-2" d="M231.86,300.27c-.13-.34-.43-.7-.77-.84-.71-.3-1.71-.07-2.01,.72-.54,1.41-1.07,2.82-1.61,4.23-.15,.38-.2,.78-.05,1.17,.13,.34,.43,.7,.77,.84,.71,.3,1.71,.07,2.01-.72,.54-1.41,1.07-2.82,1.61-4.23,.15-.38,.2-.78,.05-1.17Z"/>
          <path class="cls-2" d="M215.43,302.82c-.13-.34-.43-.7-.77-.84-.37-.15-.8-.21-1.17-.05-.34,.14-.72,.41-.84,.77-.47,1.4-.93,2.8-1.4,4.2-.13,.4-.2,.76-.05,1.17,.13,.34,.43,.7,.77,.84,.37,.15,.8,.21,1.17,.05,.34-.14,.72-.41,.84-.77l1.4-4.2c.13-.4,.2-.76,.05-1.17Z"/>
          <path class="cls-2" d="M200.59,296.1c-.47-1.87-.93-3.73-1.4-5.6-.09-.34-.46-.69-.77-.84-.34-.16-.82-.2-1.17-.05-.35,.15-.69,.41-.84,.77-.17,.4-.15,.76-.05,1.17l1.4,5.6c.09,.34,.46,.69,.77,.84,.34,.16,.82,.2,1.17,.05,.35-.15,.69-.41,.84-.77,.17-.4,.15-.76,.05-1.17Z"/>
          <path class="cls-2" d="M198.72,305.77c-.11-.86-.79-1.38-1.64-1.37-2.15,.03-4.29,.06-6.44,.09-.79,.01-1.48,.87-1.37,1.64,.11,.86,.79,1.38,1.64,1.37,2.15-.03,4.29-.06,6.44-.09,.79-.01,1.48-.87,1.37-1.64Z"/>
          <path class="cls-2" d="M184.78,299.32c-.85-.12-1.56,.39-1.76,1.21-.44,1.78-.88,3.56-1.33,5.34-.19,.77,.44,1.65,1.21,1.76,.85,.12,1.56-.39,1.76-1.21,.44-1.78,.88-3.56,1.33-5.34,.19-.77-.44-1.65-1.21-1.76Z"/>
          <path class="cls-2" d="M171.77,302.54c-.56-1.68-1.12-3.36-1.68-5.04-.25-.75-1.21-1.2-1.94-.89-.77,.33-1.16,1.14-.89,1.94l1.68,5.04c.25,.75,1.21,1.2,1.94,.89,.77-.33,1.16-1.14,.89-1.94Z"/>
          <path class="cls-2" d="M160.94,305.31c-.11-.82-.79-1.44-1.64-1.37-1.49,.12-2.98,.23-4.47,.35-.79,.06-1.48,.83-1.37,1.64,.11,.82,.79,1.44,1.64,1.37,1.49-.12,2.98-.23,4.47-.35,.79-.06,1.48-.83,1.37-1.64Z"/>
          <path class="cls-2" d="M169.83,311.2c-.79-.33-1.6-.02-2.01,.72-1.03,1.87-2.05,3.73-3.08,5.6-.38,.69,0,1.71,.72,2.01,.79,.33,1.6,.02,2.01-.72,1.03-1.87,2.05-3.73,3.08-5.6,.38-.69,0-1.71-.72-2.01Z"/>
          <path class="cls-2" d="M180.33,320.51c-.73-1.6-1.45-3.19-2.18-4.79-.16-.36-.4-.66-.77-.84-.34-.16-.82-.2-1.17-.05-.71,.3-1.24,1.17-.89,1.94,.73,1.6,1.45,3.19,2.18,4.79,.16,.36,.4,.66,.77,.84,.34,.16,.82,.2,1.17,.05,.71-.3,1.24-1.17,.89-1.94Z"/>
          <path class="cls-2" d="M160.09,323.37c-.19-1.68-.37-3.36-.56-5.04-.09-.78-.81-1.48-1.64-1.37-.8,.11-1.47,.8-1.37,1.64,.19,1.68,.37,3.36,.56,5.04,.09,.78,.81,1.48,1.64,1.37,.8-.11,1.47-.8,1.37-1.64Z"/>
          <path class="cls-2" d="M153.65,328.41c-.04-.79-.85-1.48-1.64-1.37-.84,.11-1.41,.79-1.37,1.64,.09,2.05,.19,4.11,.28,6.16,.04,.79,.85,1.48,1.64,1.37,.84-.11,1.41-.79,1.37-1.64-.09-2.05-.19-4.11-.28-6.16Z"/>
          <path class="cls-2" d="M171.01,335.14c-.11-.82-.79-1.43-1.64-1.37-2.14,.15-4.28,.31-6.43,.46-.79,.06-1.48,.84-1.37,1.64,.11,.82,.79,1.43,1.64,1.37,2.14-.15,4.28-.31,6.43-.46,.79-.06,1.48-.84,1.37-1.64Z"/>
          <path class="cls-2" d="M177.67,329c-.88,.12-1.36,.79-1.37,1.64-.02,2.05-.05,4.11-.07,6.16,0,.79,.88,1.47,1.64,1.37,.88-.12,1.36-.79,1.37-1.64,.02-2.05,.05-4.11,.07-6.16,0-.79-.88-1.47-1.64-1.37Z"/>
          <path class="cls-2" d="M192.16,334.16c-1.96-.13-3.93-.25-5.89-.38-.42-.03-.79,0-1.15,.25-.3,.21-.56,.59-.61,.96-.1,.73,.37,1.71,1.21,1.76,1.96,.13,3.93,.25,5.89,.38,.42,.03,.79,0,1.15-.25,.3-.21,.56-.59,.61-.96,.1-.73-.37-1.71-1.21-1.76Z"/>
          <path class="cls-2" d="M192.69,319.13c-.76-.32-1.64-.04-2.01,.72-.86,1.76-1.71,3.53-2.57,5.29-.35,.71-.03,1.7,.72,2.01,.76,.32,1.64,.04,2.01-.72,.86-1.76,1.71-3.53,2.57-5.29,.35-.71,.03-1.7-.72-2.01Z"/>
          <path class="cls-2" d="M205.74,320.38c-1.59-1.77-3.17-3.55-4.76-5.32-.27-.3-.54-.54-.96-.61-.37-.07-.84,.02-1.15,.25-.59,.45-.92,1.48-.36,2.11,1.59,1.77,3.17,3.55,4.76,5.32,.27,.3,.54,.54,.96,.61,.37,.07,.84-.02,1.15-.25,.59-.45,.92-1.48,.36-2.11Z"/>
          <path class="cls-2" d="M219.71,318.75c-1.76-.77-3.53-1.53-5.29-2.3-.72-.32-1.69-.05-2.01,.72-.31,.73-.05,1.67,.72,2.01,1.76,.77,3.53,1.53,5.29,2.3,.72,.32,1.69,.05,2.01-.72,.31-.73,.05-1.67-.72-2.01Z"/>
          <path class="cls-2" d="M228.56,316.42c-.8-.11-1.62,.38-1.76,1.21-.28,1.68-.56,3.36-.84,5.04-.13,.78,.4,1.65,1.21,1.76,.8,.11,1.62-.38,1.76-1.21,.28-1.68,.56-3.36,.84-5.04,.13-.78-.4-1.65-1.21-1.76Z"/>
          <path class="cls-2" d="M221.76,326.76c-.83-.11-1.58,.39-1.76,1.21-.49,2.24-.97,4.47-1.46,6.71-.17,.77,.42,1.65,1.21,1.76,.83,.11,1.58-.39,1.76-1.21,.49-2.24,.97-4.47,1.46-6.71,.17-.77-.42-1.65-1.21-1.76Z"/>
          <path class="cls-2" d="M210.17,329.58c-.62-.48-1.62-.49-2.13,.19-1.39,1.87-2.79,3.74-4.18,5.61-.47,.63-.49,1.61,.19,2.13,.62,.48,1.62,.49,2.13-.19,1.39-1.87,2.79-3.74,4.18-5.61,.47-.63,.49-1.61-.19-2.13Z"/>
          <path class="cls-2" d="M233.15,338.49c-.12-.88-.79-1.37-1.64-1.37-2.15-.02-4.29-.04-6.44-.05-.79,0-1.47,.88-1.37,1.64,.12,.88,.79,1.37,1.64,1.37,2.15,.02,4.29,.04,6.44,.05,.79,0,1.47-.88,1.37-1.64Z"/>
          <path class="cls-2" d="M237.38,325.99c-.31-.24-.7-.4-1.1-.35-.39,.05-.78,.21-1.03,.53-.93,1.21-1.87,2.43-2.8,3.64-.24,.32-.38,.7-.35,1.1,.03,.37,.23,.8,.53,1.03,.31,.24,.7,.4,1.1,.35,.39-.05,.78-.21,1.03-.53,.93-1.21,1.87-2.43,2.8-3.64,.24-.32,.38-.7,.35-1.1-.03-.37-.23-.8-.53-1.03Z"/>
          <path class="cls-2" d="M248.44,336.42c-.9-1.97-1.81-3.95-2.71-5.92-.33-.72-1.15-1.22-1.94-.89-.71,.3-1.24,1.17-.89,1.94,.9,1.97,1.81,3.95,2.71,5.92,.33,.72,1.15,1.22,1.94,.89,.71-.3,1.24-1.17,.89-1.94Z"/>
          <path class="cls-2" d="M248.29,319.12c-.13-.34-.43-.7-.77-.84-.37-.15-.8-.21-1.17-.05-.38,.16-.63,.41-.84,.77l-2.57,4.45c-.19,.32-.18,.84-.05,1.17,.13,.34,.43,.7,.77,.84,.37,.15,.8,.21,1.17,.05,.38-.16,.63-.41,.84-.77,.86-1.48,1.72-2.97,2.57-4.45,.19-.32,.18-.84,.05-1.17Z"/>
          <path class="cls-2" d="M238.95,306.63c-.8-.11-1.62,.38-1.76,1.21-.28,1.68-.57,3.36-.85,5.04-.13,.78,.4,1.65,1.21,1.76,.8,.11,1.62-.38,1.76-1.21,.28-1.68,.57-3.36,.85-5.04,.13-.78-.4-1.65-1.21-1.76Z"/>
          <path class="cls-2" d="M236.26,253.48c-.68-.52-1.55-.43-2.13,.19l-3.92,4.2c-.54,.58-.44,1.65,.19,2.13,.68,.52,1.55,.43,2.13-.19l3.92-4.2c.54-.58,.44-1.65-.19-2.13Z"/>
          <path class="cls-2" d="M239.23,247.11c-.47-1.49-.93-2.99-1.4-4.48-.24-.76-1.22-1.2-1.94-.89-.79,.33-1.14,1.13-.89,1.94,.47,1.49,.93,2.99,1.4,4.48,.24,.76,1.22,1.2,1.94,.89,.79-.33,1.14-1.13,.89-1.94Z"/>
          <path class="cls-2" d="M178.22,249.34c-1.02-1.96-2.04-3.93-3.06-5.89-.19-.36-.38-.66-.77-.84-.34-.16-.82-.2-1.17-.05-.35,.15-.69,.41-.84,.77-.15,.35-.23,.82-.05,1.17,1.02,1.96,2.04,3.93,3.06,5.89,.19,.36,.38,.66,.77,.84,.34,.16,.82,.2,1.17,.05,.35-.15,.69-.41,.84-.77,.15-.35,.23-.82,.05-1.17Z"/>
          <path class="cls-2" d="M177.15,230.35c-.13-.34-.43-.7-.77-.84-.7-.3-1.71-.07-2.01,.72-.56,1.49-1.13,2.98-1.69,4.48-.15,.39-.2,.77-.05,1.17,.13,.34,.43,.7,.77,.84,.7,.3,1.71,.07,2.01-.72,.56-1.49,1.13-2.98,1.69-4.48,.15-.39,.2-.77,.05-1.17Z"/>
          <path class="cls-2" d="M242.3,232c-.13-.34-.43-.7-.77-.84-.37-.15-.8-.21-1.17-.05-.12,.06-.23,.12-.35,.18-.21,.15-.38,.35-.49,.59l-1.4,2.52c-.18,.33-.18,.83-.05,1.17,.13,.34,.43,.7,.77,.84,.37,.15,.8,.21,1.17,.05,.12-.06,.23-.12,.35-.18,.21-.15,.38-.35,.49-.59,.47-.84,.93-1.68,1.4-2.52,.18-.33,.18-.83,.05-1.17Z"/>
          <path d="M158.87,231.33c-1.9-1.93-3.8-3.85-5.7-5.78-.19-.19-.55-.13-.71,.06-.19,.22-.13,.52,.06,.71,1.9,1.93,3.8,3.85,5.7,5.78,.19,.19,.55,.13,.71-.06,.19-.22,.13-.52-.06-.71Z"/>
          <path d="M161.01,230.39c-.56-2.15-1.12-4.29-1.68-6.44-.07-.26-.41-.38-.65-.3-.28,.1-.37,.38-.3,.65,.56,2.15,1.12,4.29,1.68,6.44,.07,.26,.41,.38,.65,.3,.28-.1,.37-.38,.3-.65Z"/>
          <path d="M256.18,237.99c-1.87,1.18-3.73,2.36-5.6,3.55-.55,.35,.03,1.17,.58,.82,1.87-1.18,3.73-2.36,5.6-3.55,.55-.35-.03-1.17-.58-.82Z"/>
          <path d="M259.21,241.76c-2.36,.43-4.73,.86-7.09,1.3-.63,.12-.55,1.12,.09,1,2.36-.43,4.73-.86,7.09-1.3,.63-.12,.55-1.12-.09-1Z"/>
          <path d="M132.51,155.44c-3.94,.46-7.61,2.22-10.44,4.99-.46,.45,.31,1.1,.77,.65,2.63-2.57,6.1-4.21,9.75-4.63,.64-.07,.56-1.08-.09-1Z"/>
          <path d="M206.21,240.22c-.02-.65-1.02-.56-1,.09,.15,5.54,.3,11.07,.45,16.61,.02,.65,1.02,.56,1-.09-.15-5.54-.3-11.07-.45-16.61Z"/>
          <circle cx="209.85" cy="248.18" r="1.26"/>
          <circle cx="209.95" cy="255.24" r="1.16"/>
          <path d="M115.61,223.16l-8.33,19.11c-.26,.59,.65,1.03,.91,.43,1.97-4.52,3.94-9.04,5.91-13.57l-3,11.98c-.16,.63,.83,.81,.99,.18l4.47-17.84c.14-.56-.72-.83-.95-.31Z"/>
          <path d="M285.38,319.39c-7.13,2.65-14.26,5.31-21.39,7.96-.61,.23-.26,1.17,.35,.94,5.4-2.01,10.8-4.02,16.2-6.03-4.43,2.64-8.86,5.28-13.29,7.92-.56,.33,.03,1.15,.58,.82,6.01-3.58,12.01-7.16,18.02-10.74,.5-.3,.06-1.08-.47-.88Z"/>
        </g>
        <g>
          <path class="cls-17" d="M227.6,197.24c-1.07,3.63-2.93,8.16-6.1,11.73-3.54,4.03-8.76,6.85-16.34,5.82-5.76-.78-9.7-3.16-12.39-6.22-3.58-4.09-4.91-9.39-5.35-13.62-4.76-.82-7.76-6.78-5.88-12.44,.97-2.91,2.76-3.5,4.33-3.37,1.59,.14,2.95,1.05,2.95,1.05l3.3-11.29c5.14-2.45,10.91-3.56,16.59-3.21,5.94,.38,11.76,2.37,16.69,5.69,.48,.33,.97,.67,1.44,1.02l2.11,9.57s.9-.52,2.05-.77c1.87-.4,4.46-.07,5.13,4.4,1.08,7.23-6.98,11.83-8.53,11.65Z"/>
          <path class="cls-5" d="M192.12,168.89c-.23,.11-.45,.22-.67,.33-1.46,.74-2.89,1.59-4.48,1.94-.14,.03-.28,.06-.43,.07-.44,.04-.9-.04-1.15-.38-.18-.26-.2-.6-.18-.92,.09-1.17,.65-2.23,1.41-3.15,.38-.48,.83-.94,1.28-1.35,2.91-2.63,6.54-4.38,10.3-5.47,2.54-.74,5.16-1.18,7.78-1.47,2.08-.1,4.19,.01,6.25,.33,6.79,1.06,13.19,4.38,17.98,9.31,.79,.82,1.54,1.68,2.2,2.61,.48,.68,.92,1.4,1.28,2.14,.32,.67,.55,1.55,.06,2.1-.49,.56-1.4,.43-2.1,.18-.21-.08-.43-.16-.63-.26-1.49-.64-2.83-1.59-4.17-2.54-.47-.34-.96-.68-1.44-1.02-4.92-3.32-10.74-5.31-16.69-5.69-5.68-.35-11.45,.77-16.59,3.21Z"/>
          <path class="cls-4" d="M198.19,159.97c-3.77,1.09-7.39,2.84-10.3,5.47-.45,.41-.9,.87-1.28,1.35,0,0,1.18-12.46,9.2-15.73,8.03-3.26,13.2-3.82,15.77-3.73s15.35,5.61,18.76,10.83c3.4,5.23,2.05,12.6,2.05,12.6-.65-.93-1.41-1.79-2.2-2.61-4.78-4.93-11.19-8.26-17.98-9.31-2.06-.32-4.17-.43-6.25-.33-2.63,.29-5.25,.74-7.78,1.47Z"/>
          <path class="cls-2" d="M199.59,198.23l13.52,2.65s-.49,6.03-8.05,5.07c-7.56-.96-5.47-7.72-5.47-7.72Z"/>
          <path class="cls-12" d="M216.75,191.43c.63,.52,1.28,1.22,1.22,2.03-.04,.49-.33,.93-.67,1.28-1.41,1.47-3.75,1.81-5.64,1.09-1.9-.73-3.34-2.41-4.07-4.3-.74-1.89-.82-3.99-.55-6,.14-1.07,.37-2.13,.79-3.13,.53,1.97,1.94,3.65,3.52,4.98,1.72,1.45,3.69,2.6,5.41,4.05Z"/>
          <path d="M231,174.92v6.26c-1.16,.24-2.05,.77-2.05,.77l-2.11-9.57c1.34,.95,2.68,1.89,4.17,2.54Z"/>
          <path d="M192.12,168.89l-3.3,11.29s-1.36-.91-2.95-1.05l.06-.45,.6-7.44c.15-.01,.29-.04,.43-.07,1.59-.35,3.02-1.21,4.48-1.94,.22-.11,.44-.22,.67-.33Z"/>
          <path d="M192.76,208.57c2.69,3.06,6.63,5.45,12.39,6.22,7.58,1.03,12.8-1.79,16.34-5.82h.01c-14.43,19.84-31.66,7.32-31.66,7.32l2.33-6.15h.01s.58-1.57,.58-1.57Z"/>
          <path class="cls-17" d="M221.86,212.87l.75,8.28-15.96,16.51-16.8-21.37s17.23,12.52,31.66-7.31l.35,3.89Z"/>
          <path d="M187.78,185.91c-.03-.65-1.03-.56-1,.09,.14,2.99,.29,5.98,.43,8.96,.03,.65,1.03,.56,1-.09-.14-2.99-.29-5.98-.43-8.96Z"/>
          <path d="M227.85,188.68c-.33,2.98-.66,5.97-.98,8.95-.07,.64,.92,.83,.99,.18,.33-2.98,.66-5.97,.98-8.95,.07-.64-.92-.83-.99-.18Z"/>
          <ellipse cx="198.34" cy="180.86" rx="2.71" ry="3.69"/>
          <ellipse cx="220.18" cy="182.57" rx="2.71" ry="3.69"/>
          <path d="M200.68,172.64c-2.27-.4-4.68,.06-6.56,1.42-.32,.23-.57,.52-.67,.92-.09,.36-.03,.84,.18,1.16,.43,.64,1.39,.99,2.08,.49,.22-.16,.45-.31,.69-.44,.11-.06,.23-.12,.34-.18,0,0,.01,0,.02,0,.04-.02,.09-.04,.1-.04,.44-.18,.89-.3,1.36-.39,.5-.06,1-.08,1.5-.04,.08,.01,.16,.02,.24,.03,.78,.14,1.66-.26,1.83-1.1,.15-.76-.27-1.69-1.1-1.83Z"/>
          <path d="M225.44,176.12c-1.99-1.36-4.4-2.01-6.8-1.66-.78,.12-1.49,.79-1.37,1.64,.1,.77,.8,1.5,1.64,1.37,.25-.04,.5-.06,.76-.08,.18,0,.45,.03,.63,0,.03,0,.07,0,.1,0,.13,.01,.25,.03,.38,.04,.22,.03,.44,.07,.65,.12,.22,.05,.43,.12,.64,.17-.44-.11-.02,0,.08,.03,.12,.04,.24,.09,.35,.14,.2,.09,.4,.18,.6,.29,.11,.06,.22,.13,.33,.19,0,0,0,0,0,0,.02,.01,.04,.03,.06,.04,.34,.23,.68,.38,1.1,.35,.37-.03,.8-.23,1.03-.53,.46-.6,.51-1.65-.19-2.13Z"/>
        </g>
      </g>
      <g>
        <path class="cls-15" d="M157.73,9.02c-.15-.19-.34-.36-.53-.54-11.3-11.3-29.63-11.3-40.93,0-11.29,11.29-11.29,29.62,.01,40.92,.01,.01,.12,.12,.31,.31,.38,.36,1.12,1.03,2.2,1.92,0,0,.1,.08,.26,.22,7.21,5.91,31.24,13.58,55.38,11.31,0,0,1.98-31.3-16.7-54.15Zm-7.93,32.99c-7.32,7.32-19.08,7.47-26.59,.46-.16-.14-.33-.31-.48-.46-7.48-7.48-7.47-19.6,0-27.07,7.47-7.48,19.6-7.49,27.08-.01,.15,.15,.32,.32,.46,.48,7.01,7.5,6.86,19.27-.47,26.6Z"/>
        <path class="cls-2" d="M149.79,42.01c-7.32,7.32-19.08,7.47-26.59,.46-.16-.14-.33-.31-.48-.46-7.48-7.48-7.47-19.6,0-27.07,7.47-7.48,19.6-7.49,27.08-.01,.15,.15,.32,.32,.46,.48,7.01,7.5,6.86,19.27-.47,26.6Z"/>
      </g>
      <text class="cls-13" transform="translate(179.65 68.43)"><tspan x="0" y="0">s</tspan><tspan class="cls-11" x="21.31" y="0">t</tspan><tspan class="cls-16" x="38.8" y="0">o</tspan><tspan class="cls-10" x="68.34" y="0">r</tspan><tspan class="cls-7" x="85.4" y="0">e</tspan></text>
    </g>
    <g>
      <path class="cls-8" d="M347.09,185.64c-.16-.41-.4-.76-.74-1.04l-.54-.35c-.41-.19-.84-.27-1.29-.23h-.56c-.34,.02-.66,.12-.94,.3-.3,.13-.55,.32-.76,.59-.22,.25-.37,.53-.44,.85-.13,.31-.17,.64-.13,.98,.05,.22,.1,.44,.15,.65,.16,.41,.4,.76,.74,1.04l.54,.35c.41,.19,.84,.27,1.29,.23h.56c.34-.02,.66-.12,.94-.3,.3-.13,.55-.32,.76-.59,.22-.25,.37-.53,.44-.85,.13-.31,.17-.64,.13-.98-.05-.22-.1-.44-.15-.65Z"/>
      <path class="cls-8" d="M366.77,127.31c-1.35,0-2.38,1.45-2.27,2.71,.13,1.44,1.35,2.27,2.71,2.27s2.38-1.45,2.27-2.71c-.13-1.44-1.35-2.27-2.71-2.27Z"/>
      <path class="cls-8" d="M391.42,183.69c-.13-.3-.32-.55-.59-.76-.25-.22-.53-.37-.85-.44-.31-.13-.64-.17-.98-.13-.22,.05-.44,.1-.65,.15-.41,.16-.76,.4-1.04,.74-.12,.18-.23,.36-.35,.54-.19,.41-.27,.84-.23,1.29v.56c.02,.34,.12,.66,.3,.94,.13,.3,.32,.55,.59,.76,.25,.22,.53,.37,.85,.44,.31,.13,.64,.17,.98,.13,.22-.05,.44-.1,.65-.15,.41-.16,.76-.4,1.04-.74,.12-.18,.23-.36,.35-.54,.19-.41,.27-.84,.23-1.29v-.56c-.02-.34-.12-.66-.3-.94Z"/>
      <path class="cls-8" d="M56.16,189.8c-.13-.3-.32-.55-.59-.76l-.54-.35c-.41-.19-.84-.27-1.29-.23-.22,.05-.44,.1-.65,.15-.41,.16-.76,.4-1.04,.74-.19,.19-.37,.37-.56,.56-.22,.25-.37,.53-.44,.85-.13,.31-.17,.64-.13,.98,.02,.34,.12,.66,.3,.94,.13,.3,.32,.55,.59,.76,.18,.12,.36,.23,.54,.35,.41,.19,.84,.27,1.29,.23,.22-.05,.44-.1,.65-.15,.41-.16,.76-.4,1.04-.74l.56-.56c.22-.25,.37-.53,.44-.85,.13-.31,.17-.64,.13-.98-.02-.34-.12-.66-.3-.94Z"/>
      <path class="cls-8" d="M72.29,155.89c-.13-.3-.32-.55-.59-.76-.25-.22-.53-.37-.85-.44-.31-.13-.64-.17-.98-.13-.22,.05-.44,.1-.65,.15-.41,.16-.76,.4-1.04,.74l-.35,.54c-.19,.41-.27,.84-.23,1.29v.56c.02,.34,.12,.66,.3,.94,.13,.3,.32,.55,.59,.76,.25,.22,.53,.37,.85,.44,.31,.13,.64,.17,.98,.13,.22-.05,.44-.1,.65-.15,.41-.16,.76-.4,1.04-.74l.35-.54c.19-.41,.27-.84,.23-1.29v-.56c-.02-.34-.12-.66-.3-.94Z"/>
      <path class="cls-8" d="M61.17,98.62c-.13-.3-.32-.55-.59-.76-.25-.22-.53-.37-.85-.44-.31-.13-.64-.17-.98-.13-.22,.05-.44,.1-.65,.15-.41,.16-.76,.4-1.04,.74l-.35,.54c-.19,.41-.27,.84-.23,1.29v.56c.02,.34,.12,.66,.3,.94,.13,.3,.32,.55,.59,.76,.25,.22,.53,.37,.85,.44,.31,.13,.64,.17,.98,.13,.22-.05,.44-.1,.65-.15,.41-.16,.76-.4,1.04-.74l.35-.54c.19-.41,.27-.84,.23-1.29v-.56c-.02-.34-.12-.66-.3-.94Z"/>
      <path class="cls-8" d="M35.19,144.5c-.16-.41-.4-.76-.74-1.04-.19-.19-.37-.37-.56-.56-.25-.22-.53-.37-.85-.44-.31-.13-.64-.17-.98-.13-.34,.02-.66,.12-.94,.3-.3,.13-.55,.32-.76,.59-.12,.18-.23,.36-.35,.54-.19,.41-.27,.84-.23,1.29,.05,.22,.1,.44,.15,.65,.16,.41,.4,.76,.74,1.04,.19,.19,.37,.37,.56,.56,.25,.22,.53,.37,.85,.44,.31,.13,.64,.17,.98,.13,.34-.02,.66-.12,.94-.3,.3-.13,.55-.32,.76-.59,.12-.18,.23-.36,.35-.54,.19-.41,.27-.84,.23-1.29-.05-.22-.1-.44-.15-.65Z"/>
      <path class="cls-1" d="M370.06,170.42c-.09-.25-.24-.46-.44-.63-.19-.19-.37-.37-.56-.56-.15-.13-.32-.22-.51-.27-.19-.08-.38-.1-.59-.08-.21,.01-.39,.07-.56,.18-.18,.08-.33,.19-.45,.35-.07,.11-.14,.22-.21,.32-.11,.24-.16,.5-.14,.77,.03,.13,.06,.26,.09,.39,.09,.25,.24,.46,.44,.63,.19,.19,.37,.37,.56,.56,.15,.13,.32,.22,.51,.27,.19,.08,.38,.1,.59,.08,.21-.01,.39-.07,.56-.18,.18-.08,.33-.19,.45-.35,.07-.11,.14-.22,.21-.32,.11-.24,.16-.5,.14-.77l-.09-.39Z"/>
      <path class="cls-1" d="M395.77,153.88c-1.93,0-1.66,2.99,.26,2.99s1.66-2.99-.26-2.99Z"/>
      <path class="cls-1" d="M365.75,104.96c-1.93,0-1.66,2.99,.26,2.99s1.66-2.99-.26-2.99Z"/>
      <path class="cls-1" d="M55.93,135.95c-.09-.25-.24-.46-.44-.63-.11-.07-.22-.14-.32-.21-.24-.11-.5-.16-.77-.14h-.56c-.21,.01-.39,.07-.56,.18-.18,.08-.33,.19-.45,.35-.13,.15-.22,.32-.27,.51-.08,.19-.1,.38-.08,.59,.03,.13,.06,.26,.09,.39,.09,.25,.24,.46,.44,.63,.11,.07,.22,.14,.32,.21,.24,.11,.5,.16,.77,.14h.56c.21-.01,.39-.07,.56-.18,.18-.08,.33-.19,.45-.35,.13-.15,.22-.32,.27-.51,.08-.19,.1-.38,.08-.59-.03-.13-.06-.26-.09-.39Z"/>
      <path class="cls-1" d="M46.48,104.26c-.09-.25-.24-.46-.44-.63-.11-.07-.22-.14-.32-.21-.24-.11-.5-.16-.77-.14h-.56c-.21,.01-.39,.07-.56,.18-.18,.08-.33,.19-.45,.35-.13,.15-.22,.32-.27,.51-.08,.19-.1,.38-.08,.59,.03,.13,.06,.26,.09,.39,.09,.25,.24,.46,.44,.63,.11,.07,.22,.14,.32,.21,.24,.11,.5,.16,.77,.14h.56c.21-.01,.39-.07,.56-.18,.18-.08,.33-.19,.45-.35,.13-.15,.22-.32,.27-.51,.08-.19,.1-.38,.08-.59-.03-.13-.06-.26-.09-.39Z"/>
      <path class="cls-1" d="M20.91,213.79c-.09-.25-.24-.46-.44-.63-.11-.07-.22-.14-.32-.21-.24-.11-.5-.16-.77-.14h-.56c-.21,.01-.39,.07-.56,.18-.18,.08-.33,.19-.45,.35-.13,.15-.22,.32-.27,.51-.08,.19-.1,.38-.08,.59,.03,.13,.06,.26,.09,.39,.09,.25,.24,.46,.44,.63,.11,.07,.22,.14,.32,.21,.24,.11,.5,.16,.77,.14h.56c.21-.01,.39-.07,.56-.18,.18-.08,.33-.19,.45-.35,.13-.15,.22-.32,.27-.51,.08-.19,.1-.38,.08-.59-.03-.13-.06-.26-.09-.39Z"/>
      <path class="cls-1" d="M29.81,235.66c-.03-.2-.1-.38-.23-.54-.11-.17-.25-.29-.42-.39-.16-.12-.33-.19-.53-.22-.13,0-.27-.01-.4-.02-.27,.02-.52,.11-.74,.27-.09,.09-.19,.17-.28,.26,0,.01-.01,.02-.02,.04-.14,0-.29,.02-.43,.08-.19,.06-.35,.17-.48,.31-.15,.12-.27,.27-.35,.45-.04,.12-.08,.25-.12,.37-.05,.27-.02,.54,.07,.79,.06,.11,.12,.23,.18,.34,.15,.21,.35,.38,.58,.49,.15,.05,.35,.14,.53,.16,.19,.02,.38,.04,.57,.02,.19-.02,.38-.07,.56-.12,.06-.02,.11-.04,.16-.07,.15-.07,.34-.16,.48-.27,.14-.11,.28-.24,.4-.38,.12-.14,.21-.3,.3-.46,.09-.16,.13-.36,.18-.53,.04-.2,.04-.4-.03-.6Z"/>
      <path class="cls-1" d="M33.82,204.48c-1.93,0-1.66,2.99,.26,2.99s1.66-2.99-.26-2.99Z"/>
      <path class="cls-8" d="M422.09,227.42c-.13-.3-.32-.55-.59-.76-.25-.22-.53-.37-.85-.44-.31-.13-.64-.17-.98-.13-.22,.05-.44,.1-.65,.15-.41,.16-.76,.4-1.04,.74l-.35,.54c-.19,.41-.27,.84-.23,1.29v.56c.02,.34,.12,.66,.3,.94,.13,.3,.32,.55,.59,.76,.25,.22,.53,.37,.85,.44,.31,.13,.64,.17,.98,.13,.22-.05,.44-.1,.65-.15,.41-.16,.76-.4,1.04-.74l.35-.54c.19-.41,.27-.84,.23-1.29v-.56c-.02-.34-.12-.66-.3-.94Z"/>
      <path class="cls-8" d="M396.11,273.3c-.16-.41-.4-.76-.74-1.04-.19-.19-.37-.37-.56-.56-.25-.22-.53-.37-.85-.44-.31-.13-.64-.17-.98-.13-.34,.02-.66,.12-.94,.3-.3,.13-.55,.32-.76,.59-.12,.18-.23,.36-.35,.54-.19,.41-.27,.84-.23,1.29,.05,.22,.1,.44,.15,.65,.16,.41,.4,.76,.74,1.04,.19,.19,.37,.37,.56,.56,.25,.22,.53,.37,.85,.44,.31,.13,.64,.17,.98,.13,.34-.02,.66-.12,.94-.3,.3-.13,.55-.32,.76-.59,.12-.18,.23-.36,.35-.54,.19-.41,.27-.84,.23-1.29-.05-.22-.1-.44-.15-.65Z"/>
      <path class="cls-1" d="M416.85,264.75c-.09-.25-.24-.46-.44-.63-.11-.07-.22-.14-.32-.21-.24-.11-.5-.16-.77-.14h-.56c-.21,.01-.39,.07-.56,.18-.18,.08-.33,.19-.45,.35-.13,.15-.22,.32-.27,.51-.08,.19-.1,.38-.08,.59,.03,.13,.06,.26,.09,.39,.09,.25,.24,.46,.44,.63,.11,.07,.22,.14,.32,.21,.24,.11,.5,.16,.77,.14h.56c.21-.01,.39-.07,.56-.18,.18-.08,.33-.19,.45-.35,.13-.15,.22-.32,.27-.51,.08-.19,.1-.38,.08-.59-.03-.13-.06-.26-.09-.39Z"/>
      <path class="cls-1" d="M407.4,233.06c-.09-.25-.24-.46-.44-.63-.11-.07-.22-.14-.32-.21-.24-.11-.5-.16-.77-.14h-.56c-.21,.01-.39,.07-.56,.18-.18,.08-.33,.19-.45,.35-.13,.15-.22,.32-.27,.51-.08,.19-.1,.38-.08,.59,.03,.13,.06,.26,.09,.39,.09,.25,.24,.46,.44,.63,.11,.07,.22,.14,.32,.21,.24,.11,.5,.16,.77,.14h.56c.21-.01,.39-.07,.56-.18,.18-.08,.33-.19,.45-.35,.13-.15,.22-.32,.27-.51,.08-.19,.1-.38,.08-.59-.03-.13-.06-.26-.09-.39Z"/>
    </g>
  </g>
</svg>